Complete name                            : O Comprador de Fazendas (1974) Alberto Pieralisi.VHSRip.CM.mkv
Format                                   : Matroska
Format version                           : Version 1
File size                                : 1.46 GiB
Duration                                 : 1h 32mn
Overall bit rate                         : 2 264 Kbps
Encoded date                             : UTC 2012-10-04 21:10:52
Writing application                      : VirtualDubMod 1.5.4.1 (build 2128/release)
Writing library                          : libebml-0.5.0 & libmatroska-0.5.0

Video
ID                                       : 1
Format                                   : AVC
Format/Info                              : Advanced Video Codec
Format profile                           : Main@L5.1
Format settings, CABAC                   : Yes
Format settings, ReFrames                : 2 frames
Codec ID                                 : H264
Duration                                 : 1h 32mn
Bit rate                                 : 2 004 Kbps
Width                                    : 640 pixels
Height                                   : 480 pixels
Display aspect ratio                     : 4:3
Frame rate                               : 23.976 fps
Color space                              : YUV
Chroma subsampling                       : 4:2:0
Bit depth                                : 8 bits
Scan type                                : Progressive
Bits/(Pixel*Frame)                       : 0.272
Stream size                              : 1.27 GiB (87%)
Writing library                          : x264 core 58 svn-736bm

Audio
ID                                       : 2
Format                                   : AC-3
Format/Info                              : Audio Coding 3
Mode extension                           : CM (complete main)
Codec ID                                 : A_AC3
Duration                                 : 1h 32mn
Bit rate mode                            : Constant
Bit rate                                 : 256 Kbps
Channel(s)                               : 2 channels
Channel positions                        : Front: L R
Sampling rate                            : 48.0 KHz
Bit depth                                : 16 bits
Compression mode                         : Lossy
Stream size                              : 169 MiB (11%)
Language                                 : Portuguese